HIERARCHY
ROOT joint_Root
{
	OFFSET 0.0 0.0 0.0
	CHANNELS 6 Xposition Yposition Zposition Zrotation Xrotation Yrotation 
	JOINT Hips
	{
		OFFSET -0.726466 93.3139 -2.00062
		CHANNELS 6 Xposition Yposition Zposition Zrotation Xrotation Yrotation 
		JOINT Spine
		{
			OFFSET 15.7357 0.0 0.0
			CHANNELS 6 Xposition Yposition Zposition Zrotation Xrotation Yrotation 
			JOINT Chest
			{
				OFFSET 8.98455 -0.406207 0.0
				CHANNELS 6 Xposition Yposition Zposition Zrotation Xrotation Yrotation 
				JOINT Neck
				{
					OFFSET 16.3773 0.0 0.0
					CHANNELS 6 Xposition Yposition Zposition Zrotation Xrotation Yrotation 
					JOINT Head
					{
						OFFSET 6.45672 0.0 0.0
						CHANNELS 6 Xposition Yposition Zposition Zrotation Xrotation Yrotation 
						End Site
						{
							OFFSET 0.0 0.0 0.0
						}
					}
				}
				JOINT Shoulder_L
				{
					OFFSET 12.9942 -0.242716 4.98039
					CHANNELS 6 Xposition Yposition Zposition Zrotation Xrotation Yrotation 
					JOINT UpperArm_L
					{
						OFFSET 5.34809 0.0 0.0
						CHANNELS 6 Xposition Yposition Zposition Zrotation Xrotation Yrotation 
						JOINT LowerArm_L
						{
							OFFSET 24.3286 1.87007e-05 0.0
							CHANNELS 6 Xposition Yposition Zposition Zrotation Xrotation Yrotation 
							JOINT Hand_L
							{
								OFFSET 22.2916 0.0 0.0
								CHANNELS 6 Xposition Yposition Zposition Zrotation Xrotation Yrotation 
								End Site
								{
									OFFSET 0.0 0.0 0.0
								}
							}
						}
					}
				}
				JOINT Shoulder_R
				{
					OFFSET 12.9945 -0.242716 -4.98039
					CHANNELS 6 Xposition Yposition Zposition Zrotation Xrotation Yrotation 
					JOINT UpperArm_R
					{
						OFFSET -5.34813 0.0 0.0
						CHANNELS 6 Xposition Yposition Zposition Zrotation Xrotation Yrotation 
						JOINT LowerArm_R
						{
							OFFSET -24.3289 0.000322201 0.0
							CHANNELS 6 Xposition Yposition Zposition Zrotation Xrotation Yrotation 
							JOINT Hand_R
							{
								OFFSET -22.2915 -0.000108084 0.0
								CHANNELS 6 Xposition Yposition Zposition Zrotation Xrotation Yrotation 
								End Site
								{
									OFFSET 0.0 0.0 0.0
								}
							}
						}
					}
				}
			}
		}
		JOINT UpperLeg_L
		{
			OFFSET -2.19248 -6.46944 0.0
			CHANNELS 6 Xposition Yposition Zposition Zrotation Xrotation Yrotation 
			JOINT LowerLeg_L
			{
				OFFSET 39.0811 0.0 -1.23785e-05
				CHANNELS 6 Xposition Yposition Zposition Zrotation Xrotation Yrotation 
				JOINT Foot_L
				{
					OFFSET 40.9854 0.0 -1.26872e-05
					CHANNELS 6 Xposition Yposition Zposition Zrotation Xrotation Yrotation 
					JOINT Toes_L
					{
						OFFSET 11.7543 0.0 0.0
						CHANNELS 6 Xposition Yposition Zposition Zrotation Xrotation Yrotation 
						End Site
						{
							OFFSET 0.0 0.0 0.0
						}
					}
				}
			}
		}
		JOINT UpperLeg_R
		{
			OFFSET -2.19251 6.46944 0.0
			CHANNELS 6 Xposition Yposition Zposition Zrotation Xrotation Yrotation 
			JOINT LowerLeg_R
			{
				OFFSET -39.0811 -0.00228153 -0.0401928
				CHANNELS 6 Xposition Yposition Zposition Zrotation Xrotation Yrotation 
				JOINT Foot_R
				{
					OFFSET -40.9854 0.0 0.0
					CHANNELS 6 Xposition Yposition Zposition Zrotation Xrotation Yrotation 
					JOINT Toes_R
					{
						OFFSET -11.7543 0.0 0.0
						CHANNELS 6 Xposition Yposition Zposition Zrotation Xrotation Yrotation 
						End Site
						{
							OFFSET 0.0 0.0 0.0
						}
					}
				}
			}
		}
	}
}
MOTION
Frames:	5
Frame Time:	0.0333333
0.000000 0.000000 0.000000 0.000000 0.000000 -0.000000 138.651000 91.355000 -110.278000 85.983900 -2.813790 2.721620 15.735700 0.000005 -0.000001 90.233200 81.445600 -89.723500 8.984550 -0.406207 -0.000000 9.342430 0.076249 1.012400 16.377300 -0.000001 -0.000001 5.926250 -1.996530 1.280270 6.456720 -0.000001 -0.000000 1.165220 -1.280900 -2.409010 12.994200 -0.242716 4.980390 -89.072800 -2.620200 -70.504800 5.348090 -0.000007 -0.000001 -59.766800 23.597900 -18.399500 24.328600 0.000019 0.000005 -0.771729 -0.908301 -40.359700 22.291600 -0.000001 0.000005 7.448610 5.588870 -10.698200 12.994500 -0.242716 -4.980390 88.879800 2.854760 -68.564800 -5.348130 -0.000001 -0.000004 -61.522300 30.345600 -15.271500 -24.328900 0.000322 -0.000009 2.141990 3.478340 -31.668000 -22.291500 -0.000108 -0.000004 6.485300 5.538780 -8.186660 -2.192480 -6.469440 -0.000000 -175.226000 -6.268610 -8.613810 39.081100 -0.000007 -0.000012 -0.035402 0.058064 31.371400 40.985400 -0.000006 -0.000013 0.754525 -8.851500 -70.329800 11.754300 -0.000000 0.000003 -0.184653 -0.196447 -14.691200 -2.192510 6.469440 -0.000001 178.173000 17.646100 160.141000 -39.081100 -0.002282 -0.040193 0.216545 -0.137497 57.197100 -40.985400 0.000008 0.000006 1.902160 -5.413110 -53.339100 -11.754300 -0.000006 -0.000006 -0.021434 -0.175107 -23.730100
0.000000 0.000000 0.000000 0.000000 0.000000 -0.000000 138.739000 91.753800 -107.526000 85.597700 -1.773870 2.818060 15.735700 0.000005 -0.000001 87.277600 81.396100 -86.389500 8.984550 -0.406207 -0.000000 9.429880 -0.799796 1.840720 16.377300 -0.000001 -0.000001 6.392020 -2.066190 1.119730 6.456720 -0.000001 -0.000000 1.012030 -0.439181 -3.078640 12.994200 -0.242716 4.980390 -89.050200 -2.759820 -71.000100 5.348090 -0.000007 -0.000001 -57.350100 23.621300 -22.447100 24.328600 0.000019 0.000005 -0.967052 -1.042620 -42.853900 22.291600 -0.000001 0.000005 7.710160 5.595910 -11.100200 12.994500 -0.242716 -4.980390 88.757300 2.998420 -67.477100 -5.348130 -0.000001 -0.000004 -62.296000 29.240100 -12.101500 -24.328900 0.000322 -0.000009 2.474330 4.228380 -30.385300 -22.291500 -0.000108 -0.000004 6.142660 5.533490 -7.949790 -2.192480 -6.469440 -0.000000 -174.814000 -5.745220 -4.975490 39.081100 -0.000007 -0.000012 -0.017845 0.033516 28.032400 40.985400 -0.000006 -0.000013 1.197500 -8.554680 -70.456500 11.754300 -0.000000 0.000003 -0.342665 -0.406487 -14.962700 -2.192510 6.469440 -0.000001 -179.392000 19.737800 158.433000 -39.081100 -0.002282 -0.040193 0.140090 -0.120467 48.640600 -40.985400 0.000008 0.000006 1.262400 -4.833000 -54.650300 -11.754300 -0.000006 -0.000006 -0.020794 -0.171649 -23.587500
0.000000 0.000000 0.000000 0.000000 0.000000 -0.000000 138.778000 91.791700 -104.839000 85.549200 -0.453834 2.721020 15.735700 0.000005 -0.000001 83.898200 81.286200 -82.755000 8.984550 -0.406207 -0.000000 9.585830 -1.823530 2.437670 16.377300 -0.000001 -0.000001 6.673350 -2.124400 1.013410 6.456720 -0.000001 -0.000000 0.684970 0.308298 -3.524730 12.994200 -0.242716 4.980390 -89.016300 -2.917380 -71.356800 5.348090 -0.000007 -0.000001 -54.846400 23.345700 -26.620900 24.328600 0.000019 0.000005 -1.124710 -1.131150 -44.841600 22.291600 -0.000001 0.000005 7.855000 5.601740 -11.446700 12.994500 -0.242716 -4.980390 88.569500 3.284470 -66.450100 -5.348130 -0.000001 -0.000004 -62.665000 27.764200 -9.377680 -24.328900 0.000322 -0.000009 2.588190 4.600910 -29.413600 -22.291500 -0.000108 -0.000004 6.169440 5.531690 -7.869400 -2.192480 -6.469440 -0.000000 -174.653000 -5.013110 -2.249980 39.081100 -0.000007 -0.000012 -0.013500 0.027843 25.866900 40.985400 -0.000006 -0.000013 1.195380 -8.128140 -71.109600 11.754300 -0.000000 0.000003 -0.650404 -0.812724 -15.133900 -2.192510 6.469440 -0.000001 -177.256000 21.504300 157.479000 -39.081100 -0.002282 -0.040193 0.075078 -0.091949 37.983100 -40.985400 0.000008 0.000006 0.755901 -3.579240 -55.297400 -11.754300 -0.000006 -0.000006 -0.021537 -0.175657 -23.752800
0.000000 0.000000 0.000000 0.000000 0.000000 -0.000000 138.784000 91.492800 -102.092000 86.106000 1.135270 2.481300 15.735700 0.000005 -0.000001 80.238400 81.115200 -79.061900 8.984550 -0.406207 -0.000000 9.787830 -2.973860 2.606480 16.377300 -0.000001 -0.000001 6.578440 -2.324440 0.924638 6.456720 -0.000001 -0.000000 0.493625 0.840596 -3.474180 12.994200 -0.242716 4.980390 -88.913100 -3.300680 -71.761800 5.348090 -0.000007 -0.000001 -52.721500 22.664800 -30.409900 24.328600 0.000019 0.000005 -0.972610 -0.913162 -46.813500 22.291600 -0.000001 0.000005 8.007590 5.603350 -11.544300 12.994500 -0.242716 -4.980390 88.462400 3.395240 -65.618300 -5.348130 -0.000001 -0.000004 -63.258600 25.734000 -6.886570 -24.328900 0.000322 -0.000009 2.776160 5.106090 -28.592700 -22.291500 -0.000108 -0.000004 6.370150 5.529580 -7.777110 -2.192480 -6.469440 -0.000000 -174.984000 -4.369200 -0.129985 39.081100 -0.000007 -0.000012 -0.017508 0.038099 24.681600 40.985400 -0.000006 -0.000013 1.099280 -7.285570 -72.204600 11.754300 -0.000000 0.000003 -1.178090 -1.513660 -15.538200 -2.192510 6.469440 -0.000001 -175.878000 23.034400 157.117000 -39.081100 -0.002282 -0.040193 0.032653 -0.059904 26.097200 -40.985400 0.000008 0.000006 -0.584628 -1.958540 -54.753900 -11.754300 -0.000006 -0.000006 -0.023272 -0.184782 -24.129300
0.000000 0.000000 0.000000 0.000000 0.000000 -0.000000 138.814000 90.883200 -99.198600 87.054700 2.747590 2.126780 15.735700 0.000005 -0.000001 76.986200 80.996600 -75.888300 8.984550 -0.406207 -0.000000 9.835630 -4.010390 2.540030 16.377300 -0.000001 -0.000001 6.342460 -2.768930 0.948017 6.456720 -0.000001 -0.000000 0.416471 0.966868 -3.367740 12.994200 -0.242716 4.980390 -88.860000 -3.568730 -72.271500 5.348090 -0.000007 -0.000001 -50.646500 22.025400 -33.498600 24.328600 0.000019 0.000005 -0.755799 -0.657235 -48.997100 22.291600 -0.000001 0.000005 8.054030 5.602810 -11.512000 12.994500 -0.242716 -4.980390 88.438400 3.334940 -64.891300 -5.348130 -0.000001 -0.000004 -63.945400 23.446100 -4.245960 -24.328900 0.000322 -0.000009 2.829800 5.255710 -28.361200 -22.291500 -0.000108 -0.000004 6.365150 5.531070 -7.842380 -2.192480 -6.469440 -0.000000 -175.434000 -4.320080 1.609060 39.081100 -0.000007 -0.000012 -0.035498 0.078206 24.413700 40.985400 -0.000006 -0.000013 0.500314 -5.707390 -74.124300 11.754300 -0.000000 0.000003 -1.255440 -1.617290 -15.584100 -2.192510 6.469440 -0.000001 -175.157000 24.342500 156.915000 -39.081100 -0.002282 -0.040193 0.011579 -0.031039 14.882900 -40.985400 0.000008 0.000006 -2.186250 0.950484 -55.012300 -11.754300 -0.000006 -0.000006 -0.023509 -0.186001 -24.179700
